<?xml version="1.0" encoding="UTF-8" standalone="no"?>
<!-- Created with Inkscape (http://www.inkscape.org/) -->

<svg
   width="106.17236mm"
   height="18.322008mm"
   viewBox="0 0 106.17236 18.322008"
   version="1.1"
   id="svg1"
   xmlns:inkscape="http://www.inkscape.org/namespaces/inkscape"
   xmlns:sodipodi="http://sodipodi.sourceforge.net/DTD/sodipodi-0.dtd"
   xmlns="http://www.w3.org/2000/svg"
   xmlns:svg="http://www.w3.org/2000/svg">
  <sodipodi:namedview
     id="namedview1"
     pagecolor="#505050"
     bordercolor="#ffffff"
     borderopacity="1"
     inkscape:showpageshadow="0"
     inkscape:pageopacity="0"
     inkscape:pagecheckerboard="1"
     inkscape:deskcolor="#505050"
     inkscape:document-units="mm"
     showguides="false">
    <inkscape:page
       x="0"
       y="0"
       width="106.17236"
       height="18.322008"
       id="page2"
       margin="0"
       bleed="0" />
  </sodipodi:namedview>
  <defs
     id="defs1" />
  <g
     inkscape:label="Layer 1"
     inkscape:groupmode="layer"
     id="layer1"
     transform="translate(-39.707974,-148.97088)">
    <g
       id="g2-8"
       transform="matrix(0.26458333,0,0,0.26458333,-13.618169,145.17632)"
       inkscape:export-filename="icon_text.png"
       inkscape:export-xdpi="300"
       inkscape:export-ydpi="300">
      <g
         style="opacity:1;fill:#001d3c;fill-opacity:1;stroke:#ffffff;stroke-width:0.358962;stroke-dasharray:none;stroke-opacity:1"
         id="g27-4"
         transform="matrix(2.5378055,-1.5003478,1.5003478,2.5378055,199.15684,27.923817)"
         inkscape:label="gear">
        <path
           d="M 18.087279,14.757472 17.62192,14.488519 c -0.553831,-0.319382 -0.884714,-0.892676 -0.884714,-1.532324 0,-0.639647 0.330883,-1.212942 0.884714,-1.532323 l 0.465359,-0.268953 c 1.270449,-0.734313 1.704843,-2.3551075 0.971415,-3.6255559 L 18.173981,5.9970396 C 17.442323,4.7292453 15.815335,4.2939663 14.548426,5.0256243 l -0.46536,0.2680681 c -0.55383,0.3202663 -1.216481,0.3202663 -1.769426,0 C 11.759809,4.9734262 11.428926,4.4010166 11.428926,3.7613688 V 3.2243479 c 0,-1.463316 -1.190824,-2.65414024 -2.6541394,-2.65414024 H 7.0053602 c -1.4633159,0 -2.6541402,1.19082424 -2.6541402,2.65414024 v 0.5379057 c 0,0.6396477 -0.3308828,1.2120573 -0.8847133,1.5323235 -0.5538306,0.3193816 -1.2155962,0.3202663 -1.7694268,0 L 1.2317206,5.0256243 c -1.26690951,-0.731658 -2.8938974,-0.296379 -3.6264401,0.9714153 l -0.8847134,1.5323235 c -0.7334273,1.2704484 -0.2990331,2.8921279 0.9714153,3.6255559 l 0.466244,0.268953 c 0.5538306,0.319381 0.88471338,0.892676 0.88471338,1.532323 0,0.639648 -0.33088278,1.212942 -0.88471338,1.532324 l -0.4653593,0.268953 c -1.2704484,0.733427 -1.7048426,2.355107 -0.9714152,3.625555 l 0.8847133,1.532324 c 0.7325427,1.267794 2.3595306,1.703073 3.6255554,0.971415 l 0.4653593,-0.268068 c 0.5538306,-0.321151 1.2155962,-0.319382 1.7694268,0 0.5538305,0.320266 0.8847133,0.892676 0.8847133,1.532324 v 0.537021 c 0,1.463315 1.1908243,2.65414 2.6541402,2.65414 h 1.7694264 c 1.4633154,0 2.6541394,-1.190825 2.6541394,-2.65414 v -0.537906 c 0,-0.639648 0.330883,-1.212058 0.884714,-1.532324 0.552945,-0.319381 1.215596,-0.320266 1.769426,0 l 0.46536,0.268953 c 1.266909,0.730773 2.893897,0.295494 3.625555,-0.971415 l 0.884713,-1.532324 c 0.733428,-1.270448 0.299034,-2.892128 -0.971415,-3.625555 z"
           id="XMLID_273_-1"
           style="fill:#001d3c;fill-opacity:1;stroke:#ffffff;stroke-width:0.358962;stroke-dasharray:none;stroke-opacity:1"
           sodipodi:nodetypes="ccscccccccsssssscccccccscccccccsssssscccccc" />
      </g>
      <g
         id="g1-7">
        <g
           id="g30-1"
           inkscape:label="Center">
          <circle
             style="fill:#ffffff;fill-opacity:1;stroke-width:1.38095"
             id="path28-2-8"
             cx="237.39775"
             cy="50.107952"
             r="7.5795455" />
          <circle
             style="fill:#b8e8fd;fill-opacity:1;stroke-width:1.14286"
             id="path28-7"
             cx="237.39775"
             cy="50.107952"
             r="6.2727275" />
        </g>
        <g
           id="g31-8"
           inkscape:label="Upper">
          <circle
             style="fill:#ffffff;fill-opacity:1;stroke-width:0.833332"
             id="path28-2-3-7"
             cx="248.92374"
             cy="30.254766"
             r="4.5738635" />
          <circle
             style="fill:#97dcfb;fill-opacity:1"
             id="path29-7"
             cx="248.92374"
             cy="30.254766"
             r="3.659091" />
          <rect
             style="fill:#ffffff;fill-opacity:1;stroke-width:1.28011"
             id="rect29-2-4"
             width="12.358844"
             height="2.1291847"
             x="86.469818"
             y="227.71962"
             ry="0"
             rx="0"
             transform="rotate(-58.873076)" />
        </g>
        <g
           id="g32-4">
          <circle
             style="fill:#ffffff;fill-opacity:1;stroke-width:1.29167"
             id="path28-2-3-4-9"
             cx="249.73154"
             cy="66.670456"
             r="7.089489" />
          <rect
             style="fill:#ffffff;fill-opacity:1;stroke-width:0.937763"
             id="rect29-7-1"
             width="6.6323924"
             height="2.1291847"
             x="184.27715"
             y="-166.85034"
             ry="0"
             rx="0"
             transform="rotate(55.092514)" />
          <circle
             style="fill:#00c5fe;fill-opacity:1;stroke-width:1.64286"
             id="path29-8-5"
             cx="249.73154"
             cy="66.670456"
             r="6.0113635" />
        </g>
        <g
           id="g29-5"
           transform="rotate(-10.949608,237.62189,50.830988)">
          <circle
             style="fill:#ffffff;fill-opacity:1;stroke-width:0.666669"
             id="path28-2-3-4-5-5"
             cx="219.17615"
             cy="49.55682"
             r="3.659091" />
          <circle
             style="fill:#def4fd;fill-opacity:1;stroke-width:0.523811"
             id="path28-6-8"
             cx="219.17615"
             cy="49.55682"
             r="2.8750002" />
          <rect
             style="fill:#ffffff;fill-opacity:1;stroke-width:1.04275"
             id="rect29-29"
             width="8.2005739"
             height="2.1291847"
             x="222.50697"
             y="48.492226"
             ry="0"
             rx="0" />
        </g>
      </g>
    </g>
    <g
       id="g37"
       transform="translate(-0.88305253,12.068385)">
      <path
         id="text32-8-7"
         style="font-size:16.6982px;line-height:1.17;writing-mode:lr-tb;direction:ltr;fill:#001d3e;fill-opacity:1;stroke:#ffffff;stroke-width:0.18;stroke-dasharray:none;stroke-opacity:1"
         d="m 83.902099,139.73627 v 12.52378 h 2.290817 v -12.52378 z m -20.962544,0.65215 v 11.87163 h 2.307352 v -4.0442 l -0.137976,-3.49487 2.298568,7.53907 h 1.785938 l 2.322855,-8.17004 -0.154512,4.12584 v 4.0442 h 2.299601 v -11.87163 h -1.09244 -0.913639 -0.937411 l -2.413289,8.12095 -2.421558,-8.12095 h -0.945678 -1.149801 z m 15.841927,2.88665 c -0.543561,0 -1.035078,0.095 -1.475362,0.28525 -0.434849,0.18481 -0.807415,0.45902 -1.117245,0.82321 -0.30983,0.35875 -0.548765,0.80469 -0.717269,1.33738 -0.163068,0.53269 -0.244946,1.14419 -0.244946,1.83452 v 0.59531 c 0,0.68489 0.08188,1.29356 0.244946,1.82625 0.168504,0.53269 0.410272,0.98095 0.725537,1.34513 0.315266,0.36419 0.690147,0.63891 1.124996,0.82373 0.440285,0.18481 0.932318,0.27698 1.475879,0.27698 0.543561,0 1.032762,-0.0922 1.467611,-0.27698 0.434849,-0.18482 0.806898,-0.45954 1.116728,-0.82373 0.315265,-0.36418 0.557549,-0.81244 0.726053,-1.34513 0.168504,-0.53269 0.252698,-1.14136 0.252698,-1.82625 v -0.59531 c 0,-0.69033 -0.08419,-1.30183 -0.252698,-1.83452 -0.168504,-0.53269 -0.410788,-0.97863 -0.726053,-1.33738 -0.30983,-0.36419 -0.684712,-0.6384 -1.124996,-0.82321 -0.434849,-0.19024 -0.926882,-0.28525 -1.475879,-0.28525 z m 0,1.89962 c 0.201117,0 0.380835,0.0518 0.538468,0.15503 0.163069,0.0978 0.299015,0.2446 0.407727,0.44029 0.108712,0.19024 0.192906,0.43716 0.252698,0.74155 0.05979,0.29896 0.0894,0.64707 0.0894,1.04387 v 0.59531 c 0,0.40767 -0.02729,0.76093 -0.08165,1.05988 -0.04892,0.29896 -0.127449,0.5464 -0.236161,0.74208 -0.103276,0.19568 -0.23639,0.33961 -0.399459,0.43201 -0.163068,0.0924 -0.347935,0.1385 -0.554488,0.1385 -0.206553,0 -0.388587,-0.0461 -0.54622,-0.1385 -0.157632,-0.0924 -0.293579,-0.23633 -0.407727,-0.43201 -0.108712,-0.19568 -0.190073,-0.44312 -0.244429,-0.74208 -0.05436,-0.29895 -0.08165,-0.65221 -0.08165,-1.05988 v -0.59531 c 0,-0.3968 0.02729,-0.74491 0.08165,-1.04387 0.05436,-0.30439 0.135717,-0.55131 0.244429,-0.74155 0.114148,-0.19569 0.247262,-0.34245 0.399459,-0.44029 0.157633,-0.10327 0.336834,-0.15503 0.537952,-0.15503 z" />
      <path
         id="text37"
         style="font-weight:bold;font-stretch:condensed;font-size:16.6982px;line-height:1.17;font-family:'Roboto Condensed';-inkscape-font-specification:'Roboto Condensed,  Bold Condensed';writing-mode:lr-tb;direction:ltr;opacity:1;fill:#006cda;stroke:#ffffff;stroke-width:0.18;stroke-dasharray:none;stroke-opacity:1"
         d="m 114.61391,139.70413 c -0.38049,0 -0.68482,0.11432 -0.91312,0.34261 -0.22286,0.2283 -0.33434,0.52182 -0.33434,0.88057 0,0.34788 0.11148,0.63857 0.33434,0.8723 0.2283,0.22829 0.53263,0.34261 0.91312,0.34261 0.38593,0 0.69027,-0.11432 0.91313,-0.34261 0.22286,-0.23373 0.33434,-0.52442 0.33434,-0.8723 0,-0.35331 -0.11148,-0.644 -0.33434,-0.8723 -0.22286,-0.23373 -0.5272,-0.35088 -0.91313,-0.35088 z m 9.3276,0 c -0.38049,0 -0.68483,0.11432 -0.91312,0.34261 -0.22286,0.2283 -0.33435,0.52182 -0.33435,0.88057 0,0.34788 0.11149,0.63857 0.33435,0.8723 0.22829,0.22829 0.53263,0.34261 0.91312,0.34261 0.38593,0 0.69026,-0.11432 0.91312,-0.34261 0.22286,-0.23373 0.33435,-0.52442 0.33435,-0.8723 0,-0.35331 -0.11149,-0.644 -0.33435,-0.8723 -0.22286,-0.23373 -0.52719,-0.35088 -0.91312,-0.35088 z m -31.977892,0.29352 c -0.559868,0 -1.067863,0.0791 -1.524454,0.23668 -0.451156,0.15763 -0.845349,0.38292 -1.182357,0.67644 -0.337008,0.28809 -0.598087,0.6362 -0.782898,1.04387 -0.179375,0.40767 -0.269234,0.8616 -0.269234,1.36167 0,0.51095 0.09552,0.95638 0.28577,1.33687 0.195682,0.37506 0.459077,0.70154 0.79065,0.97875 0.331572,0.27722 0.704138,0.52182 1.117244,0.73381 0.413107,0.20655 0.839741,0.40223 1.280025,0.58704 0.369622,0.15764 0.668291,0.30954 0.896586,0.45631 0.233732,0.14676 0.410617,0.29352 0.530201,0.44028 0.125019,0.14676 0.20638,0.30717 0.244429,0.48111 0.03805,0.17394 0.05736,0.36678 0.05736,0.57877 0,0.25548 -0.04094,0.48411 -0.122473,0.68523 -0.08153,0.20112 -0.217481,0.36153 -0.407727,0.48111 -0.184811,0.11958 -0.43456,0.17932 -0.749825,0.17932 -0.277216,0 -0.524649,-0.0353 -0.742074,-0.10594 -0.211989,-0.0761 -0.391707,-0.18759 -0.538468,-0.33435 -0.146762,-0.15219 -0.255416,-0.35354 -0.326078,-0.60358 -0.07066,-0.25547 -0.105937,-0.56264 -0.105937,-0.92139 h -2.389001 c 0,0.67402 0.106338,1.25874 0.318327,1.75338 0.211989,0.48921 0.502677,0.8937 0.872298,1.2144 0.375058,0.31526 0.807357,0.55188 1.296562,0.70952 0.489205,0.15219 1.008014,0.22841 1.557011,0.22841 0.565304,0 1.076132,-0.079 1.532723,-0.23668 0.462027,-0.15763 0.85622,-0.38009 1.182357,-0.66818 0.326136,-0.29352 0.573569,-0.64163 0.742073,-1.04386 0.17394,-0.40767 0.260966,-0.85877 0.260966,-1.35341 0,-0.50007 -0.07055,-0.94602 -0.211873,-1.33738 -0.141326,-0.39137 -0.350653,-0.74179 -0.627869,-1.05162 -0.277216,-0.31526 -0.622489,-0.59797 -1.035595,-0.84801 -0.413107,-0.25547 -0.888661,-0.48926 -1.426787,-0.70125 -0.277216,-0.10871 -0.53263,-0.2202 -0.766361,-0.33434 -0.228296,-0.11415 -0.426809,-0.23079 -0.595313,-0.35037 -0.168504,-0.12502 -0.301618,-0.2638 -0.399459,-0.416 -0.0924,-0.15763 -0.138492,-0.334 -0.138492,-0.52968 0,-0.26091 0.04609,-0.4947 0.138492,-0.70125 0.09784,-0.21199 0.244602,-0.37806 0.440284,-0.49764 0.201117,-0.12502 0.453699,-0.18759 0.758093,-0.18759 0.326137,0 0.592364,0.0734 0.798918,0.22014 0.206553,0.14676 0.356146,0.35094 0.448551,0.61185 0.09784,0.25548 0.146761,0.55131 0.146761,0.88832 h 2.380733 c 0,-0.71207 -0.154741,-1.34236 -0.464571,-1.89136 -0.304394,-0.54899 -0.736694,-0.98129 -1.296562,-1.29656 -0.554432,-0.31526 -1.21202,-0.47284 -1.973006,-0.47284 z m 25.993242,1.0356 v 2.17713 h -1.03559 v 1.7203 h 1.03559 v 4.65553 c 0,0.6251 0.0922,1.13078 0.27699,1.51671 0.18481,0.38593 0.44306,0.6658 0.77463,0.83974 0.33701,0.1685 0.73403,0.2527 1.19062,0.2527 0.27178,0 0.50557,-0.0193 0.70125,-0.0574 0.20112,-0.038 0.39113,-0.0921 0.57051,-0.16278 v -1.78543 c -0.0489,0.0163 -0.1223,0.0323 -0.22014,0.0486 -0.0978,0.0109 -0.2065,0.0165 -0.32608,0.0165 -0.16307,0 -0.29618,-0.0245 -0.39946,-0.0734 -0.0978,-0.0544 -0.17122,-0.14705 -0.22014,-0.27751 -0.0489,-0.13589 -0.0734,-0.32307 -0.0734,-0.56224 v -4.4111 h 1.19011 v -1.7203 h -1.19011 v -2.17713 z m -17.53794,2.01383 c -0.494645,0 -0.94059,0.0734 -1.33739,0.22014 -0.3968,0.14676 -0.73924,0.35042 -1.027327,0.61133 -0.282652,0.25548 -0.497127,0.55466 -0.643889,0.8971 -0.146761,0.33701 -0.220141,0.69593 -0.220141,1.07642 h 2.290816 c 0,-0.21198 0.03012,-0.39402 0.08992,-0.54622 0.06523,-0.15219 0.163067,-0.26934 0.293522,-0.35088 0.130455,-0.0815 0.293179,-0.12247 0.488859,-0.12247 0.17394,0 0.3207,0.0381 0.44028,0.1142 0.12502,0.0707 0.21771,0.18499 0.27751,0.34262 0.0652,0.15763 0.0977,0.36979 0.0977,0.63614 v 0.71726 h -0.62787 c -0.592484,0 -1.108461,0.0682 -1.548745,0.20413 -0.440285,0.13589 -0.804869,0.33157 -1.092957,0.58704 -0.288087,0.25004 -0.505395,0.5572 -0.652156,0.92139 -0.141326,0.35875 -0.211874,0.76093 -0.211874,1.20665 0,0.53812 0.111487,1.00286 0.334347,1.39423 0.228296,0.39136 0.537778,0.69569 0.929142,0.91312 0.391364,0.21742 0.823664,0.32608 1.296562,0.32608 0.337008,0 0.627691,-0.0569 0.872301,-0.17105 0.25003,-0.11959 0.45936,-0.27201 0.62787,-0.45682 0.0661,-0.0725 0.12756,-0.14776 0.18448,-0.22531 0.051,0.26711 0.11755,0.49707 0.19895,0.68988 h 2.29909 v -0.13849 c -0.10328,-0.22286 -0.18181,-0.48909 -0.23616,-0.79892 -0.0489,-0.30983 -0.0734,-0.71201 -0.0734,-1.20665 v -3.92999 c 0,-0.68489 -0.13363,-1.24232 -0.39998,-1.67173 -0.26634,-0.42941 -0.62758,-0.74173 -1.08417,-0.93741 -0.45659,-0.20112 -0.97823,-0.30179 -1.56528,-0.30179 z m 8.94415,0 c -0.45115,0 -0.85616,0.10067 -1.21491,0.30179 -0.31916,0.17408 -0.59957,0.4193 -0.84129,0.73535 l -0.0718,-0.87384 h -2.13631 v 8.82168 h 2.29134 v -6.42235 c 0.11121,-0.20279 0.24715,-0.36147 0.40772,-0.47542 0.16851,-0.11958 0.36135,-0.17932 0.57878,-0.17932 0.23373,0 0.42375,0.0438 0.57051,0.13074 0.15219,0.0815 0.26651,0.2283 0.34261,0.44029 0.0761,0.20655 0.11421,0.50007 0.11421,0.88056 v 5.6255 h 2.29081 v -5.60948 c 0,-0.63053 -0.0569,-1.16067 -0.17105,-1.59008 -0.11414,-0.42941 -0.27455,-0.77417 -0.4811,-1.03508 -0.20656,-0.26091 -0.45399,-0.45144 -0.74208,-0.57102 -0.28265,-0.11959 -0.59496,-0.17932 -0.93741,-0.17932 z m 28.2758,0 c -0.55444,0 -1.05162,0.0927 -1.4919,0.2775 -0.43485,0.17938 -0.80175,0.45358 -1.10071,0.82321 -0.29896,0.36962 -0.52991,0.82638 -0.69298,1.36994 -0.16307,0.53812 -0.24443,1.1661 -0.24443,1.8836 v 0.72554 c 0,0.6414 0.0842,1.21197 0.2527,1.71204 0.1685,0.50008 0.4131,0.92671 0.7338,1.28003 0.3207,0.34788 0.71206,0.6141 1.17409,0.79891 0.46746,0.18482 1.00275,0.27751 1.6061,0.27751 0.50552,0 0.95146,-0.0654 1.33739,-0.19586 0.38593,-0.13045 0.71704,-0.29884 0.99425,-0.50539 0.27722,-0.20656 0.49504,-0.41305 0.65268,-0.6196 l -0.91313,-1.38596 c -0.22829,0.25003 -0.50585,0.44803 -0.83199,0.59479 -0.3207,0.14133 -0.68193,0.21239 -1.08417,0.21239 -0.26634,0 -0.50013,-0.0353 -0.70125,-0.10594 -0.20111,-0.0761 -0.37233,-0.19839 -0.51366,-0.3669 -0.13589,-0.17394 -0.2394,-0.39974 -0.31006,-0.67696 -0.0553,-0.21713 -0.0888,-0.47254 -0.10077,-0.76636 h 4.58525 v -1.04387 c 0,-0.70662 -0.0705,-1.32611 -0.21187,-1.8588 -0.14133,-0.53269 -0.35065,-0.97863 -0.62787,-1.33738 -0.27722,-0.36419 -0.62764,-0.63556 -1.05162,-0.81494 -0.41854,-0.18481 -0.90542,-0.2775 -1.45985,-0.2775 z m 8.39845,0 c -0.3207,0 -0.60907,0.0978 -0.86455,0.29352 -0.25004,0.19568 -0.46451,0.47272 -0.64389,0.83147 -3.9e-4,7.9e-4 -10e-4,0.002 -0.002,0.003 l -0.0641,-0.96428 h -2.15233 v 8.82168 h 2.28307 v -5.83995 c 0.0526,-0.13926 0.11797,-0.261 0.19585,-0.36484 0.11958,-0.15763 0.26866,-0.27427 0.44803,-0.35037 0.17938,-0.0815 0.3972,-0.12247 0.65268,-0.12247 0.10871,0 0.23333,0.006 0.37465,0.0165 0.14676,0.0109 0.2719,0.0268 0.37517,0.0486 l 0.0326,-2.27479 c -0.0707,-0.0272 -0.1685,-0.0488 -0.29352,-0.0651 -0.11959,-0.0217 -0.23339,-0.0326 -0.3421,-0.0326 z m -32.56494,0.1633 v 8.82168 h 2.29134 v -8.82168 z m 9.3276,0 v 8.82168 h 2.29081 v -8.82168 z m 3.9951,0 V 145.11 h 3.35019 l -3.4401,5.487 v 1.43506 h 0.62786 0.89711 4.70462 v -1.89963 h -3.51761 l 3.46025,-5.53609 v -1.38596 h -0.79892 -0.74207 z m 10.82777,1.73632 c 0.27178,0 0.48908,0.0597 0.65215,0.17932 0.16307,0.11958 0.28254,0.30213 0.35864,0.54674 0.0761,0.23916 0.1142,0.53783 0.1142,0.89658 v 0.20413 h -2.33061 c 0.0109,-0.17747 0.0267,-0.34071 0.0476,-0.48938 0.0435,-0.31527 0.11171,-0.57068 0.20412,-0.76636 0.0924,-0.19568 0.21754,-0.33961 0.37517,-0.43202 0.15763,-0.0924 0.35048,-0.13901 0.57878,-0.13901 z m -37.0086,3.06597 h 0.55449 v 1.84278 c -0.087,0.14676 -0.22292,0.27138 -0.40773,0.37465 -0.18481,0.10328 -0.40211,0.15503 -0.65215,0.15503 -0.163071,0 -0.304166,-0.0381 -0.423749,-0.1142 -0.119584,-0.0761 -0.209443,-0.18759 -0.269234,-0.33435 -0.05979,-0.14676 -0.08992,-0.32596 -0.08992,-0.53795 0,-0.19025 0.02446,-0.36945 0.07338,-0.53795 0.05436,-0.16851 0.136234,-0.31527 0.244946,-0.44029 0.108713,-0.13045 0.241826,-0.23112 0.399457,-0.30179 0.16307,-0.0707 0.35309,-0.10593 0.57051,-0.10593 z" />
    </g>
  </g>
</svg>
